<?xml version="1.0" standalone="no"?>
<!DOCTYPE svg PUBLIC "-//W3C//DTD SVG 20010904//EN"
 "http://www.w3.org/TR/2001/REC-SVG-20010904/DTD/svg10.dtd">
<svg version="1.0" xmlns="http://www.w3.org/2000/svg"
 width="1840.000000pt" height="1840.000000pt" viewBox="0 0 1840.000000 1840.000000"
 preserveAspectRatio="xMidYMid meet">
<metadata>
Created by potrace 1.11, written by Peter Selinger 2001-2013
</metadata>
<g transform="translate(0.000000,1840.000000) scale(0.100000,-0.100000)"
fill="#000000" stroke="none">
<path d="M12224 16732 c-38 -48 -721 -891 -743 -917 -9 -11 -84 -103 -166
-205 -276 -341 -546 -675 -580 -715 -34 -42 -151 -185 -324 -400 -58 -71 -145
-179 -195 -240 -49 -60 -123 -153 -165 -205 -42 -52 -78 -97 -81 -100 -3 -3
-130 -158 -281 -345 -151 -187 -299 -369 -328 -405 -29 -36 -78 -96 -108 -133
-30 -38 -56 -67 -58 -65 -1 2 -102 127 -224 278 -123 151 -230 284 -240 295
-9 11 -102 126 -206 255 -175 217 -354 437 -394 485 -16 20 -236 291 -379 469
-40 50 -81 100 -90 111 -10 11 -48 58 -86 105 -38 47 -84 103 -101 125 -18 22
-97 119 -175 215 -344 426 -425 525 -430 530 -3 3 -41 50 -85 105 -88 110
-427 528 -453 560 -10 11 -55 66 -100 123 -46 56 -86 102 -91 102 -4 0 -39
-39 -78 -87 -39 -49 -134 -167 -213 -263 -78 -96 -205 -254 -283 -350 -78 -96
-173 -213 -212 -260 -38 -47 -86 -106 -105 -130 -19 -24 -55 -69 -80 -99 -26
-31 -85 -104 -133 -163 -48 -60 -126 -156 -174 -215 -48 -60 -114 -142 -148
-183 -34 -41 -90 -111 -125 -155 -36 -44 -67 -82 -70 -85 -3 -3 -80 -97 -171
-210 -91 -113 -234 -290 -319 -395 -85 -104 -185 -228 -223 -275 -38 -47 -86
-105 -106 -130 -21 -25 -96 -117 -167 -205 -71 -89 -223 -277 -339 -419 -115
-143 -245 -302 -288 -355 -43 -53 -92 -114 -110 -135 -18 -22 -220 -272 -450
-555 -230 -284 -431 -532 -447 -551 -16 -19 -92 -114 -170 -210 -78 -96 -156
-193 -175 -215 -53 -65 -550 -679 -660 -815 -55 -69 -102 -127 -105 -130 -3
-3 -64 -77 -135 -165 -71 -88 -153 -189 -182 -225 -30 -36 -57 -69 -61 -75
-17 -22 -137 -170 -142 -175 -3 -3 -23 -27 -45 -55 -21 -27 -42 -52 -45 -55
-3 -3 -41 -50 -85 -105 -44 -55 -83 -101 -87 -103 -9 -4 5 -34 25 -54 7 -7 60
-71 117 -143 58 -71 234 -290 393 -485 158 -195 352 -434 430 -530 77 -96 165
-204 195 -240 73 -88 76 -91 166 -205 44 -55 82 -102 86 -105 3 -3 21 -25 40
-50 19 -25 45 -56 56 -70 12 -14 76 -92 143 -175 67 -82 134 -166 150 -185 16
-19 89 -109 162 -200 73 -91 174 -215 224 -276 49 -61 104 -128 122 -150 44
-55 452 -558 1143 -1409 493 -607 790 -973 839 -1035 38 -48 70 -86 86 -104 6
-6 26 -31 45 -56 41 -53 50 -64 122 -150 44 -54 107 -131 238 -294 8 -10 24
-29 35 -42 11 -13 31 -37 45 -55 33 -43 596 -737 623 -769 12 -14 56 -68 97
-120 41 -52 83 -104 92 -115 9 -11 25 -30 35 -41 10 -12 110 -135 221 -273
l204 -250 55 67 c30 37 62 76 71 87 9 11 73 90 142 175 69 85 215 266 325 401
110 136 243 300 295 364 52 65 120 148 150 185 30 37 69 84 85 105 17 21 35
43 40 49 6 6 37 45 69 86 33 41 62 77 66 80 3 3 41 50 85 105 80 100 95 118
128 158 10 12 31 37 45 56 47 59 638 787 927 1142 66 81 142 176 170 211 27
35 54 68 60 74 5 6 83 102 173 213 90 110 167 201 171 201 4 0 39 -39 77 -87
38 -48 85 -106 104 -128 19 -23 51 -61 70 -85 32 -40 95 -118 169 -210 86
-106 357 -441 386 -475 18 -22 227 -281 466 -575 238 -294 439 -542 446 -550
7 -8 67 -82 134 -165 151 -187 142 -176 388 -479 112 -138 215 -265 230 -283
14 -17 152 -187 306 -377 278 -343 280 -346 297 -324 9 13 26 34 38 48 21 23
167 203 475 584 72 89 138 170 147 181 9 11 33 40 53 65 20 25 53 65 73 89 21
24 43 54 51 65 8 12 18 23 21 26 3 3 66 79 139 170 73 91 140 174 149 185 10
11 55 67 102 125 47 58 90 110 95 116 6 7 24 29 41 50 112 139 570 704 588
724 11 14 57 70 101 125 44 55 82 102 85 105 3 3 52 64 110 135 130 161 119
148 177 220 26 33 53 65 58 71 6 6 42 51 82 100 63 78 427 526 947 1168 88
109 216 267 284 350 251 309 934 1151 1510 1861 156 193 302 372 325 399 23
27 46 56 51 65 5 9 12 18 15 21 4 3 36 41 71 85 36 44 67 82 70 85 3 3 61 75
130 160 68 85 128 157 132 160 6 5 -71 103 -265 340 -7 8 -77 96 -157 195 -80
99 -147 182 -150 185 -6 6 -112 135 -305 375 -71 88 -132 162 -135 165 -3 3
-68 84 -145 180 -77 96 -143 177 -146 180 -3 3 -41 50 -85 105 -43 55 -82 102
-85 105 -3 3 -64 77 -135 165 -71 88 -136 169 -145 180 -10 11 -57 70 -106
130 -215 267 -308 382 -332 410 -14 17 -39 48 -56 69 -16 21 -35 44 -40 50 -6
6 -49 58 -95 116 -47 58 -90 112 -97 120 -29 36 -267 328 -292 360 -45 56
-610 752 -638 785 -13 17 -36 45 -51 64 -15 19 -79 97 -142 175 -63 78 -124
153 -135 167 -17 23 -159 197 -206 254 -10 11 -77 94 -150 185 -74 91 -141
174 -151 185 -9 11 -89 110 -178 220 -89 110 -169 209 -178 220 -55 65 -271
332 -289 358 -12 16 -26 33 -30 36 -4 3 -42 49 -84 101 -81 100 -648 801 -677
835 -9 11 -82 101 -162 200 -79 99 -147 182 -150 185 -3 3 -32 39 -65 80 -87
109 -78 104 -111 62z m-2964 -3814 c30 -38 60 -75 65 -81 6 -7 107 -131 225
-277 118 -146 222 -274 232 -285 20 -24 406 -500 462 -571 52 -64 245 -302
267 -329 10 -11 57 -69 106 -130 49 -60 96 -119 105 -130 9 -11 40 -49 70 -85
29 -36 62 -77 73 -91 26 -35 227 -283 234 -289 4 -3 62 -75 131 -160 68 -85
148 -184 178 -220 69 -84 67 -82 352 -435 134 -165 255 -314 269 -331 14 -17
33 -40 41 -50 57 -71 148 -183 167 -204 38 -41 37 -56 -4 -107 -21 -27 -40
-50 -43 -53 -3 -3 -44 -52 -90 -110 -46 -58 -87 -107 -90 -110 -3 -3 -59 -72
-125 -155 -66 -82 -122 -152 -125 -155 -4 -4 -570 -701 -657 -810 -6 -8 -45
-55 -85 -105 -96 -116 -519 -639 -629 -775 -46 -58 -86 -107 -89 -110 -4 -3
-53 -63 -110 -135 -84 -105 -241 -298 -349 -430 -9 -11 -54 -68 -101 -125 -47
-58 -92 -114 -102 -125 -9 -11 -109 -135 -223 -275 -113 -140 -210 -256 -214
-258 -4 -1 -30 25 -56 59 -27 35 -65 81 -85 104 -19 23 -42 51 -50 61 -294
363 -575 710 -579 714 -4 3 -33 39 -66 80 -32 41 -63 77 -67 78 -4 2 -8 10 -8
17 0 7 -4 15 -9 17 -5 2 -81 93 -170 203 -89 110 -186 229 -215 265 -30 36
-271 333 -536 660 -265 327 -492 606 -504 620 -11 14 -37 45 -56 70 -19 25
-43 54 -52 65 -9 11 -25 30 -35 42 -10 11 -108 133 -218 269 -110 136 -239
295 -287 353 -50 61 -84 110 -80 117 7 12 12 18 187 233 106 130 829 1022 850
1049 5 7 15 18 20 25 9 10 425 522 688 847 38 47 76 94 85 105 10 11 44 54 77
95 33 41 62 77 65 80 3 3 24 27 45 55 22 27 47 59 57 70 21 26 86 106 101 125
7 8 71 87 142 175 72 88 166 204 210 259 44 54 132 162 195 240 63 78 167 206
230 284 63 78 117 142 120 141 3 0 30 -32 60 -71z"/>
</g>
</svg>
