<svg xmlns="http://www.w3.org/2000/svg" width="1000" height="1000.001" viewBox="0 0 1000 1000.001">
  <path id="Exclusion_21" data-name="Exclusion 21" d="M1000,1000H0V0H1000V1000ZM442.639,521.868a14.066,14.066,0,0,0-10.032,4.009,13.731,13.731,0,0,0-3.99,9.823v.076a13.507,13.507,0,0,0,13.718,13.756,14.212,14.212,0,0,0,7.159-1.705,14.591,14.591,0,0,0,4.621-4.3l-5.548-3.952c-1.6,1.939-3.23,3.23-6,3.23a5.992,5.992,0,0,1-4.57-2.057,7.614,7.614,0,0,1-1.776-5.05v-.076a7.478,7.478,0,0,1,1.776-4.969,6.009,6.009,0,0,1,4.57-2.061c2.3,0,4.09.961,5.814,3.116l5.547-4.294a13.126,13.126,0,0,0-4.489-4A14.378,14.378,0,0,0,442.639,521.868Zm-34.315,24.89h0l2.736,2.773,4.979-3.572-3.572-3.534a49.982,49.982,0,0,0,3.5-5.624L411.1,534.37a39.533,39.533,0,0,1-2.508,4.218l-2.964-2.888c3.454-1.6,5.206-3.927,5.206-6.916v-.076c0-4.027-3.25-6.84-7.9-6.84a8.869,8.869,0,0,0-6.133,2.157,6.8,6.8,0,0,0-2.228,5.064v.076a8.651,8.651,0,0,0,1.748,5.092c-3.58,1.62-5.4,4.125-5.4,7.448v.077a6.9,6.9,0,0,0,2.712,5.648,10.952,10.952,0,0,0,6.788,2.028,12.6,12.6,0,0,0,7.9-2.7ZM530.419,522.4v14.935c0,4.039,1.117,7.135,3.32,9.2,2.094,1.964,5.12,2.96,8.992,2.96,3.9,0,6.955-.994,9.068-2.955,2.253-2.091,3.4-5.252,3.4-9.4V522.4h-7.485v14.972a5.816,5.816,0,0,1-1.34,4.133,4.692,4.692,0,0,1-3.563,1.339,4.6,4.6,0,0,1-3.562-1.392,6.149,6.149,0,0,1-1.34-4.27V522.4Zm-73.491,0v14.935c0,4.039,1.117,7.135,3.32,9.2,2.094,1.964,5.12,2.96,8.992,2.96,3.9,0,6.954-.994,9.068-2.955,2.254-2.091,3.4-5.252,3.4-9.4V522.4h-7.486v14.972a5.816,5.816,0,0,1-1.34,4.133,4.692,4.692,0,0,1-3.562,1.339,4.6,4.6,0,0,1-3.563-1.392,6.149,6.149,0,0,1-1.34-4.27V522.4Zm129.96,0V549h21.584v-6.27H594.183v-4.217h12.768V532.7H594.183V528.67h14.1V522.4Zm-19.95,18.545h3.23L575.525,549h8.512l-6.346-9.272a9.07,9.07,0,0,0,3.976-3.088,8.651,8.651,0,0,0,1.5-5.083v-.076a8.293,8.293,0,0,0-2.356-6.195c-1.877-1.916-4.792-2.888-8.664-2.888H559.565V549h7.372v-8.055ZM504.2,522.4v6.46h7.98V549h7.372V528.86h7.98V522.4Zm-18.126,0V549h20.255v-6.46H493.445V522.4Zm-67.355-35.532a14.557,14.557,0,0,0-10.26,4.052,13.552,13.552,0,0,0-4.1,9.78v.077a13.486,13.486,0,0,0,4.066,9.742,15.02,15.02,0,0,0,20.482-.038,13.552,13.552,0,0,0,4.1-9.78v-.076a13.487,13.487,0,0,0-4.066-9.742A14.5,14.5,0,0,0,418.718,486.868Zm-27.322,0a14.066,14.066,0,0,0-10.032,4.009,13.731,13.731,0,0,0-3.99,9.823v.077a13.508,13.508,0,0,0,13.719,13.756,14.21,14.21,0,0,0,7.158-1.705,14.6,14.6,0,0,0,4.622-4.3l-5.548-3.952c-1.6,1.939-3.229,3.23-6,3.23a5.993,5.993,0,0,1-4.57-2.057,7.614,7.614,0,0,1-1.776-5.05v-.076a7.478,7.478,0,0,1,1.776-4.968,6.009,6.009,0,0,1,4.57-2.061c2.3,0,4.09.961,5.814,3.116l5.548-4.294a13.12,13.12,0,0,0-4.488-4A14.38,14.38,0,0,0,391.4,486.868Zm111.074.533v14.934c0,4.039,1.117,7.135,3.32,9.2,2.094,1.963,5.119,2.959,8.992,2.959,3.9,0,6.955-.994,9.068-2.955,2.254-2.091,3.4-5.252,3.4-9.4V487.4H519.76v14.971c0,3.529-1.741,5.472-4.9,5.472a4.6,4.6,0,0,1-3.562-1.392,6.15,6.15,0,0,1-1.339-4.27V487.4Zm94.05,0,10.108,16.644V514h7.41V503.93L624.146,487.4H615.9l-5.51,9.689-5.472-9.689Zm-24.13,0v6.459h7.98V514h7.372V493.86h7.979V487.4Zm-10.792,0V514h7.41V487.4Zm-22.686,12.008,0,0L550.274,514h6.459V487.4h-7.3v14.06L538.494,487.4h-6.879V514h7.3V499.408Zm-48.145-.684V514H498.1V487.4h-7.79l-6.346,10.3-6.346-10.3h-7.79V514h7.22V498.8l6.764,10.337h.152l6.8-10.409Zm-32.984,0V514h7.334V487.4h-7.79l-6.346,10.3-6.346-10.3h-7.79V514h7.22V498.8l6.764,10.337h.152l6.8-10.409Zm125.381-46.856a14.538,14.538,0,0,0-10.255,4.009,13.585,13.585,0,0,0-4.071,9.822v.077a14.073,14.073,0,0,0,1.1,5.548,12.861,12.861,0,0,0,3.035,4.351,14.954,14.954,0,0,0,10.346,3.857,17.926,17.926,0,0,0,11.552-4.1v-11.97H582.631v5.4h5.243v3.23a7.549,7.549,0,0,1-4.255,1.1,7.167,7.167,0,0,1-5.192-2.076,7.485,7.485,0,0,1-2.028-5.3v-.076a6.987,6.987,0,0,1,6.8-7.3,9.356,9.356,0,0,1,6.422,2.508l4.332-5.207A15.6,15.6,0,0,0,583.163,451.868Zm-174.839,0a14.066,14.066,0,0,0-10.032,4.009,13.73,13.73,0,0,0-3.99,9.822v.077a13.508,13.508,0,0,0,13.719,13.756,14.21,14.21,0,0,0,7.158-1.705,14.6,14.6,0,0,0,4.622-4.3l-5.549-3.952c-1.6,1.939-3.229,3.23-6,3.23a5.992,5.992,0,0,1-4.569-2.057,7.614,7.614,0,0,1-1.776-5.05v-.076a7.478,7.478,0,0,1,1.776-4.969,6.009,6.009,0,0,1,4.569-2.061c2.3,0,4.09.961,5.814,3.116l5.548-4.294a13.119,13.119,0,0,0-4.488-4A14.383,14.383,0,0,0,408.325,451.868Zm138.891,12.54,0,0L558.577,479h6.46V452.4h-7.3v14.06L546.8,452.4h-6.878V479h7.3V464.408ZM527.645,452.4V479h7.411V452.4Zm-26.714,0v6.459h7.98V479h7.372V458.86h7.979V452.4ZM483.147,474.25h10.26l1.938,4.75h7.9l-11.325-26.789h-7.105L473.5,479h7.752l1.9-4.75ZM450.277,452.4V479h21.584V472.73H457.573v-4.218h12.768V462.7H457.573V458.67h14.1V452.4Zm-19.95,18.544h3.23L438.915,479h8.512l-6.346-9.272a9.068,9.068,0,0,0,3.976-3.087,8.65,8.65,0,0,0,1.5-5.083v-.076a8.29,8.29,0,0,0-2.356-6.194c-1.876-1.916-4.79-2.888-8.663-2.888H422.955V479h7.372v-8.055Zm-28.918,73.078c-1.835,0-3.116-1.078-3.116-2.622v-.076a3.389,3.389,0,0,1,1.9-2.888l4.37,4.446A5.75,5.75,0,0,1,401.409,544.022ZM571.8,535.168h-4.864v-6.384h4.826a4.739,4.739,0,0,1,2.922.793,2.8,2.8,0,0,1,1.069,2.36v.077C575.753,533.989,574.276,535.168,571.8,535.168Zm-169.632-2.774h0a4.77,4.77,0,0,1-1.367-3.04v-.076a2.482,2.482,0,0,1,.594-1.706,2.011,2.011,0,0,1,1.534-.651,1.979,1.979,0,0,1,2.052,2.128v.076c0,1.385-.894,2.424-2.812,3.268Zm16.549-24.512a6.556,6.556,0,0,1-4.911-2.152,7.436,7.436,0,0,1-1.891-5.03v-.076a7.38,7.38,0,0,1,1.853-4.993,6.49,6.49,0,0,1,4.874-2.114,6.609,6.609,0,0,1,4.945,2.152,7.418,7.418,0,0,1,1.9,5.03v.077a7.359,7.359,0,0,1-1.857,4.992A6.544,6.544,0,0,1,418.718,507.882Zm72.562-39.37h-5.966l3-7.562,2.964,7.56Zm-56.088-3.344h-4.865v-6.384h4.826a4.738,4.738,0,0,1,2.922.793,2.8,2.8,0,0,1,1.069,2.36v.077C439.143,463.989,437.666,465.168,435.191,465.168Z" fill="#fff"/>
</svg>
