<svg xmlns="http://www.w3.org/2000/svg" width="1000" height="1000.001" viewBox="0 0 1000 1000.001">
  <path id="Exclusion_20" data-name="Exclusion 20" d="M1000,1000H0V0H1000V1000ZM583.2,504.868a14.557,14.557,0,0,0-10.26,4.052,13.552,13.552,0,0,0-4.1,9.78v.076a13.486,13.486,0,0,0,4.066,9.742,15.02,15.02,0,0,0,20.482-.038,13.552,13.552,0,0,0,4.1-9.78v-.076a13.487,13.487,0,0,0-4.066-9.743A14.5,14.5,0,0,0,583.2,504.868ZM417.9,523.146l-4.1,4.9a18.556,18.556,0,0,0,12.464,4.408,12.458,12.458,0,0,0,7.8-2.294,7.813,7.813,0,0,0,2.954-6.37v-.076a6.445,6.445,0,0,0-2.665-5.51c-1.561-1.167-3.8-2.023-7.253-2.774-3.653-.829-4.6-1.36-4.6-2.584v-.076c0-1.055,1.019-1.71,2.66-1.71a13.309,13.309,0,0,1,7.448,2.622l3.686-5.206a16.777,16.777,0,0,0-10.944-3.534,11.456,11.456,0,0,0-7.543,2.4,7.767,7.767,0,0,0-2.755,6.109v.076a7.162,7.162,0,0,0,.771,3.433,6.493,6.493,0,0,0,2.121,2.314,21.364,21.364,0,0,0,7.139,2.613,13.853,13.853,0,0,1,3.6,1.173,1.493,1.493,0,0,1,.888,1.373v.076c0,1.159-1.108,1.824-3.04,1.824A13.637,13.637,0,0,1,417.9,523.146Zm190.723-5.737,0,0L619.985,532h6.46V505.4h-7.3v14.06L608.2,505.4h-6.878V532h7.3V517.408ZM557.475,505.4V532h7.41V505.4Zm-26.715,0v6.459h7.98V532h7.372V511.86h7.98V505.4ZM512.977,527.25h10.26l1.939,4.75h7.9l-11.324-26.79h-7.106L503.325,532h7.752l1.9-4.75Zm-27.018-3.306h3.23L494.547,532h8.511l-6.346-9.272a9.066,9.066,0,0,0,3.976-3.088,8.651,8.651,0,0,0,1.5-5.083v-.076a8.294,8.294,0,0,0-2.355-6.195c-1.877-1.916-4.792-2.887-8.664-2.887H478.587V532h7.372v-8.055ZM466.314,505.4V532h7.41V505.4Zm-25.727,0V532h7.372v-7.6h3.649a13.064,13.064,0,0,0,8.2-2.437,8.743,8.743,0,0,0,3.239-7.139v-.077a8.616,8.616,0,0,0-3.007-6.882,12.423,12.423,0,0,0-8.051-2.465Zm-47.31,12.008,0,0L404.639,532h6.46V505.4h-7.3v14.06L392.859,505.4h-6.878V532h7.3V517.408ZM373.707,505.4V532h7.41V505.4Zm203.757-35.532a14.538,14.538,0,0,0-10.256,4.009,13.585,13.585,0,0,0-4.071,9.822v.077a14.073,14.073,0,0,0,1.1,5.548,12.862,12.862,0,0,0,3.035,4.351,14.953,14.953,0,0,0,10.345,3.857,17.927,17.927,0,0,0,11.552-4.1v-11.97H576.931v5.4h5.244v3.23a7.551,7.551,0,0,1-4.256,1.1,7.165,7.165,0,0,1-5.191-2.076,7.485,7.485,0,0,1-2.028-5.3v-.076a6.987,6.987,0,0,1,6.8-7.3,9.355,9.355,0,0,1,6.422,2.508l4.333-5.207A15.6,15.6,0,0,0,577.464,469.868Zm-149.72.532v14.934c0,4.039,1.117,7.135,3.32,9.2,2.094,1.964,5.119,2.959,8.992,2.959,3.9,0,6.955-.994,9.068-2.954,2.254-2.091,3.4-5.252,3.4-9.4V470.4h-7.486v14.972c0,3.529-1.741,5.472-4.9,5.472a4.6,4.6,0,0,1-3.562-1.392,6.15,6.15,0,0,1-1.339-4.27V470.4Zm113.772,12.008,0,0L552.877,497h6.46V470.4h-7.3v14.06L541.1,470.4h-6.878V497h7.3V482.408ZM521.945,470.4V497h7.41V470.4Zm-29.222,0V497h10.108c4.6,0,8.462-1.317,11.172-3.809a11.985,11.985,0,0,0,2.968-4.238,13.765,13.765,0,0,0,1.022-5.328v-.076a12.362,12.362,0,0,0-3.942-9.452c-2.665-2.418-6.492-3.7-11.068-3.7Zm-23.408,0V497h20.254v-6.46H476.687V470.4Zm-12.274,0V497h7.411V470.4Zm-56.126,0V497h13.718c6.306,0,10.07-2.742,10.07-7.334v-.076a6.07,6.07,0,0,0-1.43-4.2,8.521,8.521,0,0,0-3.852-2.294,6.122,6.122,0,0,0,4.1-5.928v-.076a5.845,5.845,0,0,0-1.71-4.294c-1.611-1.611-3.985-2.394-7.258-2.394ZM583.2,525.882a6.556,6.556,0,0,1-4.911-2.152,7.435,7.435,0,0,1-1.891-5.03v-.076a7.38,7.38,0,0,1,1.853-4.993,6.49,6.49,0,0,1,4.874-2.114,6.609,6.609,0,0,1,4.945,2.152,7.417,7.417,0,0,1,1.9,5.03v.076a7.359,7.359,0,0,1-1.857,4.992A6.544,6.544,0,0,1,583.2,525.882Zm-62.092-4.37h-5.966l3-7.562,2.963,7.56Zm-69.654-2.888h-3.5v-7.03h3.458a4.888,4.888,0,0,1,3.126.893,3.161,3.161,0,0,1,1.13,2.6v.076a3.15,3.15,0,0,1-1.126,2.513A4.777,4.777,0,0,1,451.455,518.624Zm39.368-.456h-4.865v-6.384h4.827a4.737,4.737,0,0,1,2.921.793,2.8,2.8,0,0,1,1.069,2.36v.076C494.775,516.989,493.3,518.168,490.823,518.168Zm-77.026-27.1h-5.7v-4.9h5.624c2.328,0,3.61.85,3.61,2.394v.076C417.331,490.186,416.043,491.073,413.8,491.073Zm89.3-.609h-3V476.936h3c4.524,0,7.334,2.577,7.334,6.726v.077a6.432,6.432,0,0,1-2.014,4.973A7.836,7.836,0,0,1,503.1,490.464ZM412.733,481H408.1v-4.675h4.788c2.157,0,3.344.81,3.344,2.281v.076C416.229,480.2,415.02,481,412.733,481Z" fill="#fff"/>
</svg>
