<svg xmlns="http://www.w3.org/2000/svg" viewBox="0 0 72.03 72"><defs><style>.cls-1{fill:#231f20;}</style></defs><g id="Layer_2" data-name="Layer 2"><g id="Layer_1-2" data-name="Layer 1"><path class="cls-1" d="M0,53.57V18.42c.12-.74.19-1.48.36-2.21C2.19,8.06,7.13,2.83,15.19.59c1-.29,2.15-.4,3.23-.59H53.57c.23,0,.45.1.68.12a17.88,17.88,0,0,1,5.68,1.5C67.67,5.28,71.83,11.4,72,20,72.1,30.65,72,41.33,72,52a19.16,19.16,0,0,1-3.53,11.35A19.59,19.59,0,0,1,51.74,72Q36,72,20.24,72a19,19,0,0,1-4-.36C8,69.81,2.83,64.85.59,56.81.3,55.75.19,54.65,0,53.57ZM65.61,36V20.4a14.76,14.76,0,0,0-.72-4.84A13.47,13.47,0,0,0,51.7,6.39c-10.48,0-21,0-31.42,0a15.17,15.17,0,0,0-4.69.73,13.31,13.31,0,0,0-9.2,13.13q0,15.72,0,31.42a14,14,0,0,0,.73,4.77A13.43,13.43,0,0,0,20.19,65.6q15.81,0,31.63,0a13.32,13.32,0,0,0,11.31-5.73,13.52,13.52,0,0,0,2.48-8.19C65.6,46.46,65.61,41.23,65.61,36Z"/><path class="cls-1" d="M54.55,36A18.56,18.56,0,1,1,36,17.44,18.64,18.64,0,0,1,54.55,36ZM36,48.15A12.16,12.16,0,1,0,23.84,36,12.17,12.17,0,0,0,36,48.15Z"/><path class="cls-1" d="M55.43,12.06a4.66,4.66,0,1,1-4.79,4.58A4.69,4.69,0,0,1,55.43,12.06Z"/></g></g></svg>