<svg xmlns="http://www.w3.org/2000/svg" viewBox="0 0 84.67 72"><defs><style>.cls-1{fill:#231f20;}</style></defs><g id="Layer_2" data-name="Layer 2"><g id="Layer_1-2" data-name="Layer 1"><path class="cls-1" d="M35.76,0c10.15,0,20.31,0,30.46,0a5.23,5.23,0,0,1,5.26,4.3,5.4,5.4,0,0,1,.07.8V66.41a5.1,5.1,0,0,1-4.86,5.08H5.36A5,5,0,0,1,.22,67.82,5.45,5.45,0,0,1,0,66.31Q0,35.75,0,5.2A5.06,5.06,0,0,1,5.09,0C7.55,0,10,0,12.46,0Zm2.39,31.39c0-1.43,0-2.66,0-3.88,0-.59-.15-.81-.79-.81-2.92,0-5.85,0-8.77,0-.7,0-.85.22-.85.88q0,16.29,0,32.59c0,.67.17.9.86.89,3,0,6.07,0,9.1,0,.68,0,.87-.2.86-.88,0-5.46,0-10.93,0-16.39a20.23,20.23,0,0,1,.28-3.39c.41-2.31,1.46-4.19,3.94-4.8a9.43,9.43,0,0,1,2.38-.22A4.36,4.36,0,0,1,49.81,39a19.39,19.39,0,0,1,.46,4.3c0,5.62,0,11.24,0,16.86,0,.66.17.91.87.9,3,0,6.07,0,9.1,0,.65,0,.83-.2.83-.84q0-9.08,0-18.14a31.35,31.35,0,0,0-.69-7.36c-.77-3.31-2.3-6.13-5.55-7.58a14.82,14.82,0,0,0-10-.84A11,11,0,0,0,38.15,31.41ZM21.28,43.85c0-5.44,0-10.88,0-16.33,0-.6-.16-.8-.79-.79-3.08,0-6.16,0-9.23,0-.61,0-.8.15-.8.78q0,16.4,0,32.78c0,.65.23.79.81.79,3,0,6.07,0,9.11,0,.89,0,.89,0,.89-.9Zm-5.39-21.7A6.21,6.21,0,1,0,9.67,16,6.18,6.18,0,0,0,15.89,22.15Z"/><path class="cls-1" d="M79.82,62.41a4.74,4.74,0,0,1,4.85,4.79,4.84,4.84,0,0,1-9.68,0A4.74,4.74,0,0,1,79.82,62.41Zm-.22,9.16a4.4,4.4,0,1,0-4.15-4.84A4.34,4.34,0,0,0,79.6,71.57Z"/><path class="cls-1" d="M80.44,67.54l1.34,2.09-.15.17a2.61,2.61,0,0,1-.65-.46,15,15,0,0,1-1-1.51.72.72,0,0,0-1-.33c-.15,0-.22.42-.24.65,0,.4,0,.81,0,1.2,0,.13-.18.24-.28.36-.1-.12-.29-.23-.29-.35,0-1.43,0-2.86,0-4.28,0-.14.3-.36.47-.38a15.61,15.61,0,0,1,1.81,0,1.28,1.28,0,0,1,1.37,1.18,1.35,1.35,0,0,1-1,1.47Zm-1.66-2.37c0,.55,0,1,0,1.51,0,.11.18.29.27.29a9.26,9.26,0,0,0,1.58-.11.68.68,0,0,0,.49-.94,1.24,1.24,0,0,0-.7-.72A7.46,7.46,0,0,0,78.78,65.17Z"/></g></g></svg>