<svg xmlns="http://www.w3.org/2000/svg" xmlns:xlink="http://www.w3.org/1999/xlink" viewBox="0 0 90.05 15.73"><defs><style>.cls-1{fill:none;}.cls-2{clip-path:url(#clip-path);}.cls-3{fill:#c2d500;}.cls-4{fill:#00ac98;}.cls-5{fill:#333132;}.cls-6{fill:#727372;}</style><clipPath id="clip-path" transform="translate(0 0)"><rect class="cls-1" width="90.05" height="15.73"/></clipPath></defs><g id="Layer_2" data-name="Layer 2"><g id="Layer_1-2" data-name="Layer 1"><g id="Main_Logo_-_Color" data-name="Main Logo - Color"><g class="cls-2"><polygon class="cls-3" points="47.04 0 45.17 2.31 47.06 4.64 45.17 6.97 47.04 9.29 50.81 4.64 47.04 0"/><polygon class="cls-4" points="43.29 0 39.52 4.64 43.29 9.29 45.17 6.97 43.28 4.64 45.17 2.31 43.29 0"/><g class="cls-2"><path class="cls-5" d="M5.42,2.81A1.74,1.74,0,0,1,4.28,4.49,1.83,1.83,0,0,1,5.82,6.25c0,1.24-1,2-2.61,2H0V1H3.07c1.42,0,2.35.7,2.35,1.8m-.82.12C4.6,2.21,4,1.74,3,1.74H.8V4.23H2.94c1,0,1.66-.45,1.66-1.3M5,6.19C5,5.4,4.34,5,3.08,5H.8V7.49H3.23C4.32,7.49,5,7,5,6.19" transform="translate(0 0)"/><path class="cls-5" d="M13.6,5.14c0,2.11-1.21,3.2-3,3.2a2.82,2.82,0,0,1-3-3.13V1H8.4V5.15c0,1.56.83,2.44,2.21,2.44s2.17-.81,2.17-2.38V1h.82Z" transform="translate(0 0)"/><path class="cls-5" d="M20.75,8.23,18.66,5.42H16.6V8.23h-.82V1h3.1c1.59,0,2.61.86,2.61,2.15a2.12,2.12,0,0,1-2,2.12l2.22,3ZM18.82,1.76H16.6V4.69h2.21c1.08,0,1.86-.56,1.86-1.5S20,1.76,18.82,1.76" transform="translate(0 0)"/><polygon class="cls-5" points="28.8 1.01 29.59 1.01 29.59 8.22 28.94 8.22 24.29 2.31 24.29 8.22 23.49 8.22 23.49 1.01 24.25 1.01 28.8 6.79 28.8 1.01"/><path class="cls-5" d="M34.48,4.23c1.61.35,2.35.93,2.35,2.05s-1,2.05-2.46,2.05a4.18,4.18,0,0,1-2.95-1.16l.5-.59a3.46,3.46,0,0,0,2.48,1c1,0,1.61-.51,1.61-1.24S35.64,5.3,34.13,5c-1.66-.36-2.42-.9-2.42-2.09a2.12,2.12,0,0,1,2.37-2,3.78,3.78,0,0,1,2.53.88l-.47.63a3.2,3.2,0,0,0-2.08-.78c-.94,0-1.54.51-1.54,1.17s.37,1.08,2,1.42" transform="translate(0 0)"/><path class="cls-5" d="M56.25,4.23c1.6.35,2.35.93,2.35,2.05s-1,2.05-2.47,2.05a4.22,4.22,0,0,1-3-1.16l.51-.59a3.42,3.42,0,0,0,2.47,1c1,0,1.61-.51,1.61-1.24S57.41,5.3,55.9,5s-2.43-.9-2.43-2.09a2.12,2.12,0,0,1,2.37-2,3.79,3.79,0,0,1,2.54.88l-.47.63a3.2,3.2,0,0,0-2.09-.78c-.93,0-1.53.51-1.53,1.17s.37,1.08,2,1.42" transform="translate(0 0)"/><path class="cls-5" d="M63.81,8.35a3.6,3.6,0,0,1-3.62-3.72A3.63,3.63,0,0,1,63.84.89,3.76,3.76,0,0,1,66.66,2l-.56.6a3.13,3.13,0,0,0-2.27-1,2.82,2.82,0,0,0-2.79,3,2.85,2.85,0,0,0,2.79,3,3.17,3.17,0,0,0,2.33-1l.54.52a3.77,3.77,0,0,1-2.89,1.27" transform="translate(0 0)"/><path class="cls-5" d="M75.1,8.23h-.88l-.84-1.91H69.45l-.86,1.91h-.83L71.05,1h.76ZM71.42,1.91,69.77,5.59h3.29Z" transform="translate(0 0)"/><polygon class="cls-5" points="76.78 1.01 77.59 1.01 77.59 7.47 81.66 7.47 81.66 8.22 76.78 8.22 76.78 1.01"/><path class="cls-5" d="M86.36,8.35a3.62,3.62,0,0,1-3.67-3.72,3.68,3.68,0,1,1,7.36,0,3.66,3.66,0,0,1-3.69,3.74m0-6.71a2.84,2.84,0,0,0-2.83,3,2.88,2.88,0,0,0,2.85,3,2.84,2.84,0,0,0,2.82-3,2.87,2.87,0,0,0-2.84-3" transform="translate(0 0)"/><path class="cls-6" d="M20.65,15.68l-1.06-1.42h-1v1.42h-.41V12h1.57c.8,0,1.32.43,1.32,1.09a1.08,1.08,0,0,1-1,1.07l1.13,1.49Zm-1-3.27H18.55v1.48h1.12c.55,0,.94-.28.94-.75s-.35-.73-.94-.73" transform="translate(0 0)"/><polygon class="cls-6" points="26.37 12.4 24.14 12.4 24.14 13.65 26.14 13.65 26.14 14.03 24.14 14.03 24.14 15.3 26.39 15.3 26.39 15.68 23.73 15.68 23.73 12.03 26.37 12.03 26.37 12.4"/><path class="cls-6" d="M32.45,15.68H32l-.43-1h-2l-.43,1h-.42L30.4,12h.38Zm-1.86-3.2-.84,1.87h1.67Z" transform="translate(0 0)"/><polygon class="cls-6" points="34.99 12.03 35.4 12.03 35.4 15.3 37.46 15.3 37.46 15.68 34.99 15.68 34.99 12.03"/><polygon class="cls-6" points="46.07 12.4 43.84 12.4 43.84 13.65 45.84 13.65 45.84 14.03 43.84 14.03 43.84 15.3 46.1 15.3 46.1 15.68 43.43 15.68 43.43 12.03 46.07 12.03 46.07 12.4"/><path class="cls-6" d="M50.06,13.66c.81.17,1.19.47,1.19,1s-.52,1-1.25,1a2.13,2.13,0,0,1-1.49-.58l.26-.3a1.74,1.74,0,0,0,1.25.51c.49,0,.81-.25.81-.62s-.18-.54-.95-.7-1.22-.46-1.22-1.06a1.07,1.07,0,0,1,1.2-1,1.89,1.89,0,0,1,1.28.45l-.24.31a1.63,1.63,0,0,0-1-.39c-.48,0-.78.26-.78.59s.19.54,1,.72" transform="translate(0 0)"/><polygon class="cls-6" points="55.22 15.68 54.8 15.68 54.8 12.41 53.57 12.41 53.57 12.03 56.44 12.03 56.44 12.41 55.22 12.41 55.22 15.68"/><path class="cls-6" d="M62,15.68h-.45l-.42-1h-2l-.43,1h-.43L59.92,12h.38Zm-1.86-3.2-.84,1.87h1.66Z" transform="translate(0 0)"/><polygon class="cls-6" points="65.42 15.68 65.01 15.68 65.01 12.41 63.78 12.41 63.78 12.03 66.65 12.03 66.65 12.41 65.42 12.41 65.42 15.68"/><polygon class="cls-6" points="71.88 12.4 69.66 12.4 69.66 13.65 71.65 13.65 71.65 14.03 69.66 14.03 69.66 15.3 71.91 15.3 71.91 15.68 69.24 15.68 69.24 12.03 71.88 12.03 71.88 12.4"/></g></g></g></g></g></svg>