<svg xmlns="http://www.w3.org/2000/svg" viewBox="0 0 61.38 61.18"><defs><style>.cls-1{fill:#fff;}</style></defs><g id="Layer_2" data-name="Layer 2"><g id="Layer_1-2" data-name="Layer 1"><path class="cls-1" d="M12.9,20.19h-11c-.73,0-1,.17-1,.93V60.23c0,.78.28,1,1,1H12.76c1.05,0,1.05,0,1.05-1.08l0-19.48V21.13C13.84,20.43,13.65,20.17,12.9,20.19Z"/><path class="cls-1" d="M22.58,61.15H33.45c.81,0,1-.24,1-1V40.54a24.85,24.85,0,0,1,.35-4,6.33,6.33,0,0,1,4.71-5.73,10.82,10.82,0,0,1,2.84-.26,5.2,5.2,0,0,1,5.54,4.32A22.65,22.65,0,0,1,48.46,40V60.08c0,.78.21,1.08,1,1.07H60.38c.77,0,1-.24,1-1V38.5a37.55,37.55,0,0,0-.82-8.78,12,12,0,0,0-6.63-9,17.65,17.65,0,0,0-11.93-1,13.1,13.1,0,0,0-8,6.12V21.11c0-.7-.18-1-.95-1H22.57c-.84,0-1,.26-1,1.05V60.1C21.56,60.9,21.76,61.17,22.58,61.15Z"/><path class="cls-1" d="M7.41,14.72a7.36,7.36,0,1,0-5.23-2.13A7.36,7.36,0,0,0,7.41,14.72Z"/></g></g></svg>